<svg width="26" height="25" viewBox="0 0 26 25" fill="none" xmlns="http://www.w3.org/2000/svg">
<path fill-rule="evenodd" clip-rule="evenodd" d="M5.32805 7H2.28606C1.02606 7 6.19879e-05 8.035 6.19879e-05 9.3049V12.373C6.19879e-05 13.651 1.02606 14.677 2.28606 14.677H5.32805C6.59705 14.677 7.61405 13.651 7.61405 12.373V9.3049C7.61405 8.035 6.59705 7 5.32805 7ZM5.32787 17.3227H2.28587C1.02588 17.3227 -0.00012207 18.3496 -0.00012207 19.6276V22.6957C-0.00012207 23.9647 1.02588 24.9997 2.28587 24.9997H5.32787C6.59687 24.9997 7.61387 23.9647 7.61387 22.6957V19.6276C7.61387 18.3496 6.59687 17.3227 5.32787 17.3227ZM12.672 17.3227H15.714C16.974 17.3227 18 18.3496 18 19.6276V22.6957C18 23.9647 16.974 24.9997 15.714 24.9997H12.672C11.403 24.9997 10.386 23.9647 10.386 22.6957V19.6276C10.386 18.3496 11.403 17.3227 12.672 17.3227Z" fill="#38972E"/>
<path d="M10.3904 14.5L10.3904 10L10.5 8L11 6.5L11.5 6L12 5.5L13 5L15.7842 4.47245L20.5 4.47245" stroke="#38972E" stroke-width="0.8" stroke-linecap="round"/>
<path d="M10.5 14.5L15.1096 14.5276L18 14.5L19 14L19.6096 13.5276L20 13L20.5 12L20.5981 9.41972L20.6096 4.52758" stroke="#38972E" stroke-width="0.8" stroke-linecap="round" stroke-linejoin="round"/>
<path d="M11.8231 12.8231L13 10.5L14.5 8.5L16.5 7L18.8231 5.82306" stroke="#38972E" stroke-width="0.5"/>
<path d="M13 11.75L14.5 11.5L16 11.75" stroke="#38972E" stroke-width="0.2"/>
<path d="M15 9.25L16.5 9L18 9.25" stroke="#38972E" stroke-width="0.2"/>
<path d="M11.9999 7.11641L12.7526 8.00994L13.0628 9.13629" stroke="#38972E" stroke-width="0.2"/>
</svg>
