<svg width="24" height="24" viewBox="0 0 24 24" fill="none" xmlns="http://www.w3.org/2000/svg">
<path fill-rule="evenodd" clip-rule="evenodd" d="M4.53988 2H7.91988C9.32988 2 10.4599 3.15 10.4599 4.561V7.97C10.4599 9.39 9.32988 10.53 7.91988 10.53H4.53988C3.13988 10.53 1.99988 9.39 1.99988 7.97V4.561C1.99988 3.15 3.13988 2 4.53988 2ZM4.53988 12.53H7.91988C9.32988 12.53 10.4599 13.671 10.4599 15.091V18.5C10.4599 19.91 9.32988 21.06 7.91988 21.06H4.53988C3.13988 21.06 1.99988 19.91 1.99988 18.5V15.091C1.99988 13.671 3.13988 12.53 4.53988 12.53ZM19.46 2H16.08C14.67 2 13.54 3.15 13.54 4.561V7.97C13.54 9.39 14.67 10.53 16.08 10.53H19.46C20.86 10.53 22 9.39 22 7.97V4.561C22 3.15 20.86 2 19.46 2ZM16.08 12.53H19.46C20.86 12.53 22 13.671 22 15.091V18.5C22 19.91 20.86 21.06 19.46 21.06H16.08C14.67 21.06 13.54 19.91 13.54 18.5V15.091C13.54 13.671 14.67 12.53 16.08 12.53Z" fill="#38972E"/>
</svg>
