<svg width="32" height="32" viewBox="0 0 32 32" fill="none" xmlns="http://www.w3.org/2000/svg">
<rect width="32" height="32" rx="6" fill="#38972E"/>
<path fill-rule="evenodd" clip-rule="evenodd" d="M17.1043 8.17701L18.9317 11.8278C19.1108 12.1862 19.4565 12.4347 19.8573 12.4922L23.9453 13.0806C24.9554 13.2264 25.3573 14.4505 24.6263 15.1519L21.6702 17.9924C21.3797 18.2718 21.2474 18.6733 21.3162 19.0676L22.0138 23.0778C22.1856 24.0698 21.1298 24.8267 20.227 24.3574L16.5732 22.4627C16.215 22.2768 15.786 22.2768 15.4268 22.4627L11.773 24.3574C10.8702 24.8267 9.81439 24.0698 9.98724 23.0778L10.6838 19.0676C10.7526 18.6733 10.6203 18.2718 10.3298 17.9924L7.37368 15.1519C6.64272 14.4505 7.04464 13.2264 8.05466 13.0806L12.1427 12.4922C12.5435 12.4347 12.8903 12.1862 13.0694 11.8278L14.8957 8.17701C15.3477 7.27433 16.6523 7.27433 17.1043 8.17701Z" stroke="#FFFEFE" stroke-width="1.5" stroke-linecap="round" stroke-linejoin="round"/>
</svg>
