<svg width="22" height="22" viewBox="0 0 22 22" fill="none" xmlns="http://www.w3.org/2000/svg">
<rect width="22" height="22" rx="11" fill="#38972E"/>
<path fill-rule="evenodd" clip-rule="evenodd" d="M13.2457 5.45874C13.6138 5.45874 13.9813 5.51066 14.3307 5.62791C16.4838 6.32791 17.2596 8.69041 16.6115 10.7554C16.244 11.8107 15.6432 12.7737 14.8563 13.5607C13.7298 14.6515 12.4938 15.6198 11.1632 16.454L11.0173 16.5421L10.8657 16.4482C9.53043 15.6198 8.28735 14.6515 7.15043 13.5548C6.36876 12.7679 5.76735 11.8107 5.39401 10.7554C4.73485 8.69041 5.51068 6.32791 7.6871 5.61566C7.85626 5.55733 8.03068 5.51649 8.20568 5.49374H8.27568C8.4396 5.46983 8.60235 5.45874 8.76568 5.45874H8.82985C9.19735 5.46983 9.55318 5.53399 9.89793 5.65124H9.93235C9.95568 5.66233 9.97318 5.67458 9.98485 5.68566C10.1138 5.72708 10.2357 5.77374 10.3523 5.83791L10.574 5.93708C10.6276 5.96564 10.6877 6.00929 10.7397 6.04702C10.7726 6.07092 10.8022 6.09244 10.8248 6.10624C10.8344 6.11186 10.844 6.11751 10.8538 6.1232C10.9038 6.1524 10.9559 6.18281 10.9998 6.21649C11.6479 5.72124 12.4348 5.45291 13.2457 5.45874ZM14.7974 9.65874C15.0365 9.65233 15.2407 9.46041 15.2582 9.21483V9.14541C15.2757 8.32816 14.7804 7.58791 14.0274 7.30208C13.7882 7.21983 13.5257 7.34874 13.4382 7.59374C13.3565 7.83874 13.4849 8.10708 13.7299 8.19399C14.1038 8.33399 14.354 8.70208 14.354 9.10983V9.12791C14.3429 9.26149 14.3832 9.39041 14.4649 9.48958C14.5465 9.58874 14.669 9.64649 14.7974 9.65874Z" fill="white"/>
</svg>
