<svg width="325" height="360" viewBox="0 0 325 360" fill="none" xmlns="http://www.w3.org/2000/svg">
<rect width="325" height="360" rx="30" fill="white"/>
<path fill-rule="evenodd" clip-rule="evenodd" d="M114.511 113H136.481C145.646 113 152.991 120.36 152.991 129.391V151.209C152.991 160.297 145.646 167.593 136.481 167.593H114.511C105.411 167.593 98.0015 160.297 98.0015 151.209V129.391C98.0015 120.36 105.411 113 114.511 113ZM114.51 186.407H136.48C145.645 186.407 152.99 193.71 152.99 202.798V224.616C152.99 233.64 145.645 241 136.48 241H114.51C105.41 241 98 233.64 98 224.616V202.798C98 193.71 105.41 186.407 114.51 186.407ZM211.49 113H189.52C180.355 113 173.01 120.36 173.01 129.391V151.209C173.01 160.297 180.355 167.593 189.52 167.593H211.49C220.59 167.593 228 160.297 228 151.209V129.391C228 120.36 220.59 113 211.49 113ZM189.52 186.407H211.49C220.59 186.407 228 193.71 228 202.798V224.616C228 233.64 220.59 241 211.49 241H189.52C180.355 241 173.01 233.64 173.01 224.616V202.798C173.01 193.71 180.355 186.407 189.52 186.407Z" fill="#141010" fill-opacity="0.8"/>
<path fill-rule="evenodd" clip-rule="evenodd" d="M85 30H95.0001V32H85C70.8013 32 60.3535 32.0042 52.3484 33.0805C44.4007 34.149 39.1609 36.2411 35.201 40.201C31.2412 44.1609 29.1491 49.4007 28.0805 57.3483C27.0668 64.8886 27.0041 74.5961 27.0003 87.5639H25.0002C25.0075 60.8963 25.256 47.3176 33.7868 38.7868C42.5736 30 56.7158 30 85 30ZM240 32H230V30H240C268.284 30 282.426 30 291.213 38.7868C299.744 47.3176 299.993 60.8963 300 87.5639H298C297.996 74.5961 297.933 64.8886 296.92 57.3483C295.851 49.4007 293.759 44.1609 289.799 40.201C285.839 36.2411 280.599 34.149 272.652 33.0805C264.647 32.0042 254.199 32 240 32ZM297.999 273.24C297.993 285.806 297.912 295.268 296.92 302.652C295.851 310.599 293.759 315.839 289.799 319.799C285.839 323.759 280.599 325.851 272.652 326.919C264.647 327.996 254.199 328 240 328H230V330H240C268.284 330 282.426 330 291.213 321.213C299.658 312.768 299.987 299.377 300 273.24H297.999ZM95.0001 330H85C56.7158 330 42.5736 330 33.7868 321.213C25.3421 312.768 25.0133 299.377 25.0005 273.24H27.0006C27.0071 285.806 27.0878 295.268 28.0805 302.652C29.1491 310.599 31.2412 315.839 35.201 319.799C39.1609 323.759 44.4007 325.851 52.3484 326.919C60.3535 327.996 70.8013 328 85 328H95.0001V330Z" fill="#141010"/>
<path d="M25 175H300V270C300 298.284 300 312.426 291.213 321.213C282.426 330 268.284 330 240 330H85C56.7157 330 42.5736 330 33.7868 321.213C25 312.426 25 298.284 25 270V175Z" fill="url(#paint0_linear)"/>
<line x1="25" y1="176" x2="300" y2="176" stroke="white" stroke-width="2"/>
<defs>
<linearGradient id="paint0_linear" x1="162" y1="95.8243" x2="162" y2="356.392" gradientUnits="userSpaceOnUse">
<stop stop-color="#38972E"/>
<stop offset="1" stop-color="white" stop-opacity="0"/>
</linearGradient>
</defs>
</svg>
