<svg width="70" height="49" viewBox="0 0 70 49" fill="none" xmlns="http://www.w3.org/2000/svg">
<path d="M31.5575 2.26812C33.487 0.436365 36.513 0.436365 38.4425 2.26812L40.5307 4.25051C41.8458 5.49906 43.7339 5.93764 45.4648 5.39665L50.0825 3.95334C52.627 3.15806 55.2632 4.88862 55.5453 7.53949V7.53949C55.7667 9.61891 57.4756 11.2237 59.5648 11.3141L63.7035 11.4931C66.2018 11.6012 67.5424 14.4788 66.0179 16.461V16.461C64.7884 18.0597 65.3964 20.3888 67.2505 21.1825L67.648 21.3527C70.4163 22.5378 70.4163 26.4622 67.648 27.6473L67.2505 27.8175C65.3964 28.6112 64.7884 30.9403 66.0179 32.539V32.539C67.5424 34.5212 66.2018 37.3988 63.7035 37.5069L59.5648 37.6859C57.4756 37.7763 55.7667 39.3811 55.5453 41.4605V41.4605C55.2632 44.1114 52.627 45.8419 50.0825 45.0467L45.4648 43.6034C43.7339 43.0624 41.8458 43.5009 40.5307 44.7495L38.4425 46.7319C36.513 48.5636 33.487 48.5636 31.5575 46.7319L29.4693 44.7495C28.1542 43.5009 26.2661 43.0624 24.5352 43.6033L19.9175 45.0467C17.373 45.8419 14.7368 44.1114 14.4547 41.4605V41.4605C14.2333 39.3811 12.5244 37.7763 10.4352 37.6859L6.29651 37.5068C3.79819 37.3988 2.4576 34.5212 3.98208 32.539V32.539C5.21163 30.9403 4.60361 28.6112 2.74951 27.8175L2.35199 27.6473C-0.416339 26.4622 -0.416336 22.5378 2.352 21.3527L2.74951 21.1825C4.60362 20.3888 5.21163 18.0597 3.98208 16.461V16.461C2.4576 14.4788 3.79819 11.6012 6.29651 11.4932L10.4352 11.3141C12.5244 11.2237 14.2333 9.61891 14.4547 7.53949V7.53949C14.7368 4.88862 17.373 3.15806 19.9175 3.95334L24.5352 5.39665C26.2661 5.93764 28.1542 5.49906 29.4693 4.25051L31.5575 2.26812Z" fill="#F2C94C"/>
</svg>
