<svg width="24" height="24" viewBox="0 0 24 24" fill="none" xmlns="http://www.w3.org/2000/svg">
<style>
  .dots {
    transform-origin: center;
    animation: spin 3s linear infinite;
  }
  @keyframes spin {
    from { transform: rotate(0deg); }
    to { transform: rotate(360deg); }
  }
</style>
<path class="dots" fill-rule="evenodd" clip-rule="evenodd" d="M5.28618 3H8.32818C9.59717 3 10.6142 4.035 10.6142 5.3049V8.37299C10.6142 9.65099 9.59717 10.677 8.32818 10.677H5.28618C4.02618 10.677 3.00018 9.65099 3.00018 8.37299V5.3049C3.00018 4.035 4.02618 3 5.28618 3ZM5.286 13.3227H8.32799C9.59699 13.3227 10.614 14.3496 10.614 15.6276V18.6957C10.614 19.9647 9.59699 20.9997 8.32799 20.9997H5.286C4.026 20.9997 3 19.9647 3 18.6957V15.6276C3 14.3496 4.026 13.3227 5.286 13.3227ZM18.7141 3H15.6721C14.4031 3 13.3861 4.035 13.3861 5.3049V8.37299C13.3861 9.65099 14.4031 10.677 15.6721 10.677H18.7141C19.9741 10.677 21.0001 9.65099 21.0001 8.37299V5.3049C21.0001 4.035 19.9741 3 18.7141 3ZM15.6721 13.3227H18.7141C19.9741 13.3227 21.0001 14.3496 21.0001 15.6276V18.6957C21.0001 19.9647 19.9741 20.9997 18.7141 20.9997H15.6721C14.4031 20.9997 13.3861 19.9647 13.3861 18.6957V15.6276C13.3861 14.3496 14.4031 13.3227 15.6721 13.3227Z" fill="#130F26"/>
</svg>
