<svg width="100" height="29" viewBox="0 0 100 29" fill="none" xmlns="http://www.w3.org/2000/svg">
<path d="M5.54053 24.166C4.11279 24.166 2.99495 23.751 2.18701 22.9209C1.3846 22.0853 0.983398 20.937 0.983398 19.4761C0.983398 17.9764 1.35693 16.7977 2.104 15.9399C2.85107 15.0822 3.8776 14.6533 5.18359 14.6533C6.39551 14.6533 7.35286 15.0213 8.05566 15.7573C8.75846 16.4933 9.10986 17.506 9.10986 18.7954V19.8496H2.99219C3.01986 20.7406 3.26058 21.4268 3.71436 21.9082C4.16813 22.3841 4.80729 22.6221 5.63184 22.6221C6.17415 22.6221 6.67773 22.5723 7.14258 22.4727C7.61296 22.3675 8.11654 22.196 8.65332 21.958V23.5435C8.17741 23.7703 7.69596 23.9308 7.20898 24.0249C6.72201 24.119 6.16585 24.166 5.54053 24.166ZM5.18359 16.1309C4.5638 16.1309 4.06576 16.3273 3.68945 16.7202C3.31868 17.1131 3.09733 17.6859 3.02539 18.4385H7.19238C7.18132 17.6803 6.9987 17.1076 6.64453 16.7202C6.29036 16.3273 5.80339 16.1309 5.18359 16.1309ZM15.0283 24.166C13.6393 24.166 12.5824 23.762 11.8574 22.9541C11.138 22.1406 10.7783 20.9757 10.7783 19.4595C10.7783 17.9155 11.1546 16.7285 11.9072 15.8984C12.6654 15.0684 13.7583 14.6533 15.186 14.6533C16.1545 14.6533 17.026 14.8332 17.8008 15.1929L17.2114 16.7617C16.3869 16.4408 15.7062 16.2803 15.1694 16.2803C13.5812 16.2803 12.7871 17.3345 12.7871 19.4429C12.7871 20.4722 12.9836 21.2469 13.3765 21.7671C13.7749 22.2817 14.356 22.5391 15.1196 22.5391C15.9884 22.5391 16.8102 22.3232 17.585 21.8916V23.5933C17.2363 23.798 16.8628 23.9447 16.4644 24.0332C16.0715 24.1217 15.5928 24.166 15.0283 24.166ZM27.8862 19.3931C27.8862 20.8927 27.5016 22.0632 26.7324 22.9043C25.9632 23.7454 24.8924 24.166 23.52 24.166C22.6623 24.166 21.9041 23.9723 21.2456 23.585C20.5871 23.1976 20.0807 22.6414 19.7266 21.9165C19.3724 21.1916 19.1953 20.3504 19.1953 19.3931C19.1953 17.9045 19.5771 16.7424 20.3408 15.9067C21.1045 15.0711 22.1808 14.6533 23.5698 14.6533C24.8979 14.6533 25.9494 15.0822 26.7241 15.9399C27.4989 16.7922 27.8862 17.9432 27.8862 19.3931ZM21.2041 19.3931C21.2041 21.5125 21.9871 22.5723 23.5532 22.5723C25.1027 22.5723 25.8774 21.5125 25.8774 19.3931C25.8774 17.2957 25.0972 16.2471 23.5366 16.2471C22.7176 16.2471 22.1227 16.5182 21.752 17.0605C21.3867 17.6029 21.2041 18.3804 21.2041 19.3931ZM37.3408 20.7046C37.3408 21.7837 36.9507 22.6304 36.1704 23.2446C35.3901 23.8589 34.3138 24.166 32.9414 24.166C31.569 24.166 30.4456 23.953 29.5713 23.5269V21.6509C30.1247 21.911 30.7113 22.1157 31.3311 22.2651C31.9564 22.4146 32.5374 22.4893 33.0742 22.4893C33.86 22.4893 34.4383 22.3398 34.8091 22.041C35.1854 21.7422 35.3735 21.341 35.3735 20.8374C35.3735 20.3836 35.202 19.999 34.8589 19.6836C34.5158 19.3682 33.8075 18.9946 32.7339 18.563C31.6271 18.1147 30.8468 17.6029 30.3931 17.0273C29.9393 16.4518 29.7124 15.7601 29.7124 14.9521C29.7124 13.9395 30.0721 13.1426 30.7915 12.5615C31.5109 11.9805 32.4766 11.6899 33.6885 11.6899C34.8506 11.6899 36.0072 11.9445 37.1582 12.4536L36.5273 14.0723C35.4482 13.6185 34.4854 13.3916 33.6387 13.3916C32.9967 13.3916 32.5098 13.5327 32.1777 13.8149C31.8457 14.0916 31.6797 14.4596 31.6797 14.9189C31.6797 15.2344 31.7461 15.5055 31.8789 15.7324C32.0117 15.9538 32.2303 16.1641 32.5347 16.3633C32.839 16.5625 33.3869 16.8254 34.1782 17.1519C35.0692 17.5226 35.7222 17.8685 36.1372 18.1895C36.5522 18.5104 36.8566 18.8729 37.0503 19.2769C37.244 19.6808 37.3408 20.1567 37.3408 20.7046ZM47.5591 24H45.6001V18.3555C45.6001 17.6471 45.4562 17.1187 45.1685 16.77C44.8862 16.4214 44.4352 16.2471 43.8154 16.2471C42.9964 16.2471 42.3932 16.4933 42.0059 16.9858C41.624 17.4728 41.4331 18.2918 41.4331 19.4429V24H39.4824V11.084H41.4331V14.3628C41.4331 14.8885 41.3999 15.4502 41.3335 16.0479H41.458C41.7236 15.6051 42.0916 15.262 42.562 15.0186C43.0379 14.7751 43.5913 14.6533 44.2222 14.6533C46.4468 14.6533 47.5591 15.7739 47.5591 18.0151V24ZM58.4165 19.3931C58.4165 20.8927 58.0319 22.0632 57.2627 22.9043C56.4935 23.7454 55.4227 24.166 54.0503 24.166C53.1925 24.166 52.4344 23.9723 51.7759 23.585C51.1174 23.1976 50.611 22.6414 50.2568 21.9165C49.9027 21.1916 49.7256 20.3504 49.7256 19.3931C49.7256 17.9045 50.1074 16.7424 50.8711 15.9067C51.6348 15.0711 52.7111 14.6533 54.1001 14.6533C55.4282 14.6533 56.4797 15.0822 57.2544 15.9399C58.0291 16.7922 58.4165 17.9432 58.4165 19.3931ZM51.7344 19.3931C51.7344 21.5125 52.5174 22.5723 54.0835 22.5723C55.633 22.5723 56.4077 21.5125 56.4077 19.3931C56.4077 17.2957 55.6274 16.2471 54.0669 16.2471C53.2479 16.2471 52.653 16.5182 52.2822 17.0605C51.917 17.6029 51.7344 18.3804 51.7344 19.3931ZM65.3228 24.166C64.1606 24.166 63.2586 23.7482 62.6167 22.9126H62.5005C62.578 23.6873 62.6167 24.1577 62.6167 24.3237V28.084H60.666V14.8193H62.2432C62.2874 14.9909 62.3787 15.4004 62.5171 16.0479H62.6167C63.2254 15.1182 64.1385 14.6533 65.356 14.6533C66.5015 14.6533 67.3924 15.0684 68.0288 15.8984C68.6707 16.7285 68.9917 17.8934 68.9917 19.3931C68.9917 20.8927 68.6652 22.0632 68.0122 22.9043C67.3647 23.7454 66.4683 24.166 65.3228 24.166ZM64.8496 16.2471C64.0749 16.2471 63.5076 16.474 63.1479 16.9277C62.7938 17.3815 62.6167 18.1064 62.6167 19.1025V19.3931C62.6167 20.5109 62.7938 21.3216 63.1479 21.8252C63.5021 22.3232 64.0804 22.5723 64.8828 22.5723C65.5579 22.5723 66.0781 22.2956 66.4434 21.7422C66.8086 21.1888 66.9912 20.4002 66.9912 19.3765C66.9912 18.3472 66.8086 17.5697 66.4434 17.0439C66.0837 16.5127 65.5524 16.2471 64.8496 16.2471Z" fill="#38972E"/>
<path fill-rule="evenodd" clip-rule="evenodd" d="M79.3281 7H76.2861C75.0261 7 74.0001 8.035 74.0001 9.3049V12.373C74.0001 13.651 75.0261 14.677 76.2861 14.677H79.3281C80.5971 14.677 81.614 13.651 81.614 12.373V9.3049C81.614 8.035 80.5971 7 79.3281 7ZM79.3279 17.3227H76.2859C75.0259 17.3227 73.9999 18.3496 73.9999 19.6276V22.6957C73.9999 23.9647 75.0259 24.9997 76.2859 24.9997H79.3279C80.5969 24.9997 81.6139 23.9647 81.6139 22.6957V19.6276C81.6139 18.3496 80.5969 17.3227 79.3279 17.3227ZM86.672 17.3227H89.714C90.974 17.3227 92 18.3496 92 19.6276V22.6957C92 23.9647 90.974 24.9997 89.714 24.9997H86.672C85.403 24.9997 84.386 23.9647 84.386 22.6957V19.6276C84.386 18.3496 85.403 17.3227 86.672 17.3227Z" fill="#38972E"/>
<path d="M84.3904 14.5L84.3904 10L84.5 8L85 6.5L85.5 6L86 5.5L87 5L89.7842 4.47245L94.5 4.47245" stroke="#38972E" stroke-width="0.8" stroke-linecap="round"/>
<path d="M84.5 14.5L89.1096 14.5276L92 14.5L93 14L93.6096 13.5276L94 13L94.5 12L94.5981 9.41972L94.6096 4.52758" stroke="#38972E" stroke-width="0.8" stroke-linecap="round" stroke-linejoin="round"/>
<path d="M85.8231 12.8231L87 10.5L88.5 8.5L90.5 7L92.8231 5.82306" stroke="#38972E" stroke-width="0.5"/>
<path d="M87 11.75L88.5 11.5L90 11.75" stroke="#38972E" stroke-width="0.2"/>
<path d="M89 9.25L90.5 9L92 9.25" stroke="#38972E" stroke-width="0.2"/>
<path d="M85.9999 7.11641L86.7526 8.00994L87.0628 9.13629" stroke="#38972E" stroke-width="0.2"/>
</svg>
